# xmcd
#
# Track frame offsets:
#	182
#	14857
#	26605
#	44845
#	59352
#	79332
#	94892
#	109997
#	125330
#	139570
#	155372
#	170630
#	186337
#	203267
#	220215
#	233702
#
# Disc length: 3340 seconds
#
# Revision: 2
# Processed by: cddbd v1.4PL0 Copyright (c) Steve Scherf et al.
# Submitted via: audiograbber 1.82.02
#
DISCID=e50d0a10
DTITLE=FRANCK MICHAEL - BALLADE POUR UN JE T'AIME
DYEAR=1996
DGENRE=Other
TTITLE0=Ballade Pour Un Je T'Aime
TTITLE1=Eternamente
TTITLE2=On Revient Toujours
TTITLE3=Faisons Comme Si
TTITLE4=Entends Ma Voix
TTITLE5=Je Pense A Vous
TTITLE6=Dites-Lui Que Je L'Aime
TTITLE7=Voglia
TTITLE8=Un Garçon Pleure
TTITLE9=Reviens
TTITLE10=Souviens Toi De Ma Chanson
TTITLE11=Lady Anne
TTITLE12=Je Te Dis Merci
TTITLE13=E Se M'Innamoro
TTITLE14=Sweet Mariane
TTITLE15=Reviens Pour Le Pire Ou Le Meilleur
EXTD=
EXTT0=
EXTT1=
EXTT2=
EXTT3=
EXTT4=
EXTT5=
EXTT6=
EXTT7=
EXTT8=
EXTT9=
EXTT10=
EXTT11=
EXTT12=
EXTT13=
EXTT14=
EXTT15=
PLAYORDER=
